<svg width="35" height="35" viewBox="0 0 35 35" fill="none" xmlns="http://www.w3.org/2000/svg">
<path d="M31.7188 17.5H17.5" stroke="white" stroke-width="2" stroke-linecap="round" stroke-linejoin="round"/>
<path d="M26.25 27.3438V30.625H8.75V4.375H26.25V7.65625H28.4375V3.28125C28.4375 2.99117 28.3223 2.71297 28.1171 2.50785C27.912 2.30273 27.6338 2.1875 27.3438 2.1875H7.65625C7.36617 2.1875 7.08797 2.30273 6.88285 2.50785C6.67773 2.71297 6.5625 2.99117 6.5625 3.28125V31.7188C6.5625 32.0088 6.67773 32.287 6.88285 32.4921C7.08797 32.6973 7.36617 32.8125 7.65625 32.8125H27.3438C27.6338 32.8125 27.912 32.6973 28.1171 32.4921C28.3223 32.287 28.4375 32.0088 28.4375 31.7188V27.3438H26.25Z" fill="white"/>
<path d="M17.5 17.5L21.875 13.125" stroke="white" stroke-width="2" stroke-linecap="round" stroke-linejoin="round"/>
<path d="M17.5 17.5L21.875 21.875" stroke="white" stroke-width="2" stroke-linecap="round" stroke-linejoin="round"/>
<path d="M27.3438 8.75V6.5625" stroke="white" stroke-width="2" stroke-linecap="round" stroke-linejoin="round"/>
<path d="M27.3438 28.4375V26.25" stroke="white" stroke-width="2" stroke-linecap="round" stroke-linejoin="round"/>
</svg>
