<svg width="35" height="35" viewBox="0 0 35 35" fill="none" xmlns="http://www.w3.org/2000/svg">
<path d="M17.4125 17.5H31.6312" stroke="white" stroke-width="2" stroke-linecap="round" stroke-linejoin="round"/>
<path d="M26.1735 27.3438V30.625H8.67346V4.375H26.1735V7.65625H28.361V3.28125C28.361 2.99117 28.2457 2.71297 28.0406 2.50785C27.8355 2.30273 27.5573 2.1875 27.2672 2.1875H7.57971C7.28963 2.1875 7.01143 2.30273 6.80631 2.50785C6.6012 2.71297 6.48596 2.99117 6.48596 3.28125V31.7188C6.48596 32.0088 6.6012 32.287 6.80631 32.4921C7.01143 32.6973 7.28963 32.8125 7.57971 32.8125H27.2672C27.5573 32.8125 27.8355 32.6973 28.0406 32.4921C28.2457 32.287 28.361 32.0088 28.361 31.7188V27.3438H26.1735Z" fill="white"/>
<path d="M31.6312 17.5L27.2562 21.875" stroke="white" stroke-width="2" stroke-linecap="round" stroke-linejoin="round"/>
<path d="M31.6312 17.5L27.2562 13.125" stroke="white" stroke-width="2" stroke-linecap="round" stroke-linejoin="round"/>
<path d="M27.2562 8.84845V6.66095" stroke="white" stroke-width="2" stroke-linecap="round" stroke-linejoin="round"/>
<path d="M27.2562 28.4375V26.25" stroke="white" stroke-width="2" stroke-linecap="round" stroke-linejoin="round"/>
</svg>
