<svg width="20" height="20" viewBox="0 0 20 20" fill="none" xmlns="http://www.w3.org/2000/svg">
<g clip-path="url(#clip0_373_496)">
<path d="M19 7.5L17.625 7.25C17.5 7 17.5 6.75 17.375 6.5L18.125 5.375L18.75 4.5L15.5 1.25L14.625 1.875L13.5 2.625C13.25 2.5 13 2.5 12.75 2.375L12.5 1L12.25 0H7.75L7.5 1L7.25 2.375C7 2.5 6.75 2.5 6.5 2.625L5.375 1.875L4.5 1.375L1.375 4.5L2 5.375L2.75 6.5C2.5 6.75 2.5 7 2.375 7.25L1 7.5L0 7.75V12.25L1 12.5L2.375 12.75C2.5 13 2.5 13.25 2.625 13.5L1.875 14.625L1.25 15.5L4.5 18.75L5.375 18.125L6.5 17.375C6.75 17.5 7 17.5 7.25 17.625L7.5 19L7.75 20H12.25L12.5 19L12.75 17.625C13 17.5 13.25 17.5 13.5 17.375L14.625 18.125L15.5 18.75L18.75 15.5L18.125 14.625L17.375 13.5C17.5 13.25 17.625 13 17.625 12.75L19 12.5L20 12.25V7.75L19 7.5ZM18.75 11.25L16.625 11.625C16.5 12.25 16.25 12.875 15.875 13.5L17 15.25L15.25 17L13.5 15.875C12.875 16.25 12.25 16.5 11.625 16.625L11.25 18.75H8.75L8.375 16.625C7.75 16.5 7.125 16.25 6.5 15.875L4.75 17L3 15.25L4.125 13.5C3.75 12.875 3.5 12.25 3.375 11.625L1.25 11.25V8.75L3.375 8.375C3.5 7.75 3.75 7.125 4.125 6.5L2.875 4.75L4.625 3L6.375 4.125C7 3.75 7.625 3.5 8.25 3.375L8.75 1.25H11.25L11.625 3.375C12.25 3.5 12.875 3.75 13.5 4.125L15.25 3L17 4.75L15.875 6.5C16.25 7.125 16.5 7.75 16.625 8.375L18.75 8.75V11.25Z" fill="white"/>
<path d="M10 5.625C7.625 5.625 5.625 7.625 5.625 10C5.625 12.375 7.625 14.375 10 14.375C12.375 14.375 14.375 12.375 14.375 10C14.375 7.625 12.375 5.625 10 5.625ZM10 13.125C8.25 13.125 6.875 11.75 6.875 10C6.875 8.25 8.25 6.875 10 6.875C11.75 6.875 13.125 8.25 13.125 10C13.125 11.75 11.75 13.125 10 13.125Z" fill="white"/>
</g>
<defs>
<clipPath id="clip0_373_496">
<rect width="20" height="20" fill="white"/>
</clipPath>
</defs>
</svg>
