<svg width="20" height="23" viewBox="0 0 20 23" fill="none" xmlns="http://www.w3.org/2000/svg">
<path d="M10.0001 11.5C11.1538 11.5 12.2816 11.1628 13.2409 10.531C14.2002 9.89913 14.9479 9.00111 15.3894 7.95043C15.8309 6.89976 15.9464 5.74362 15.7213 4.62823C15.4962 3.51284 14.9407 2.48829 14.1249 1.68414C13.3091 0.879986 12.2697 0.332352 11.1381 0.110487C10.0066 -0.111378 8.83366 0.00249138 7.76776 0.437695C6.70186 0.872899 5.79082 1.60989 5.14984 2.55547C4.50887 3.50106 4.16675 4.61276 4.16675 5.75C4.16675 7.275 4.78133 8.73753 5.87529 9.81586C6.96925 10.8942 8.45299 11.5 10.0001 11.5ZM10.0001 1.64286C10.8242 1.64286 11.6298 1.88374 12.315 2.33504C13.0002 2.78634 13.5342 3.42778 13.8496 4.17827C14.1649 4.92875 14.2475 5.75456 14.0867 6.55127C13.9259 7.34797 13.5291 8.0798 12.9464 8.65419C12.3636 9.22858 11.6212 9.61975 10.813 9.77823C10.0047 9.9367 9.16693 9.85537 8.40557 9.54451C7.64421 9.23365 6.99346 8.70722 6.53562 8.03181C6.07779 7.35639 5.83341 6.56232 5.83341 5.75C5.83341 4.66072 6.2724 3.61605 7.0538 2.84581C7.8352 2.07558 8.89501 1.64286 10.0001 1.64286Z" fill="white"/>
<path d="M10.8333 13.1429H9.16667C6.73552 13.1429 4.40394 14.0948 2.68485 15.7894C0.965771 17.4839 0 19.7821 0 22.1786C0 22.3964 0.0877975 22.6054 0.244078 22.7594C0.400358 22.9135 0.61232 23 0.833333 23H19.1667C19.3877 23 19.5996 22.9135 19.7559 22.7594C19.9122 22.6054 20 22.3964 20 22.1786C20 19.7821 19.0342 17.4839 17.3151 15.7894C15.5961 14.0948 13.2645 13.1429 10.8333 13.1429ZM1.71667 21.3571C1.92158 19.5505 2.79459 17.8817 4.1689 16.6694C5.54321 15.4572 7.32245 14.7866 9.16667 14.7857H10.8333C12.6776 14.7866 14.4568 15.4572 15.8311 16.6694C17.2054 17.8817 18.0784 19.5505 18.2833 21.3571H1.71667Z" fill="white"/>
</svg>
